<mxfile host="app.diagrams.net" modified="2022-10-17T08:52:31.527Z" agent="5.0 (X11; Linux x86_64) AppleWebKit/537.36 (KHTML, like Gecko) Chrome/106.0.0.0 Safari/537.36 Edg/106.0.1370.47" etag="X2Udc5EoE7vHzLxKqQ25" version="20.4.1" type="github">
  <diagram id="jR5IjF84arQoBaVbk0nm" name="第 1 页">
    <mxGraphModel dx="1264" dy="790" grid="0" gridSize="10" guides="1" tooltips="1" connect="1" arrows="1" fold="1" page="0" pageScale="1" pageWidth="827" pageHeight="1169" math="0" shadow="0">
      <root>
        <mxCell id="0" />
        <mxCell id="1" parent="0" />
        <mxCell id="jUKbqVsv8oZFXf8WdBwF-5" style="edgeStyle=orthogonalEdgeStyle;rounded=0;orthogonalLoop=1;jettySize=auto;html=1;exitX=0;exitY=0.5;exitDx=0;exitDy=0;entryX=1;entryY=0.25;entryDx=0;entryDy=0;fontFamily=Courier New;fontSize=16;" edge="1" parent="1" source="jUKbqVsv8oZFXf8WdBwF-1" target="jUKbqVsv8oZFXf8WdBwF-2">
          <mxGeometry relative="1" as="geometry" />
        </mxCell>
        <mxCell id="jUKbqVsv8oZFXf8WdBwF-1" value="&lt;font style=&quot;font-size: 16px;&quot; face=&quot;Courier New&quot;&gt;静态前端资源&lt;/font&gt;" style="rounded=0;whiteSpace=wrap;html=1;" vertex="1" parent="1">
          <mxGeometry x="470" y="130" width="290" height="80" as="geometry" />
        </mxCell>
        <mxCell id="jUKbqVsv8oZFXf8WdBwF-2" value="&lt;font style=&quot;font-size: 26px;&quot;&gt;nginx&lt;/font&gt;" style="rounded=0;whiteSpace=wrap;html=1;fontFamily=Courier New;fontSize=16;" vertex="1" parent="1">
          <mxGeometry x="95" y="100" width="300" height="280" as="geometry" />
        </mxCell>
        <mxCell id="jUKbqVsv8oZFXf8WdBwF-7" value="location /" style="text;html=1;strokeColor=none;fillColor=none;align=center;verticalAlign=middle;whiteSpace=wrap;rounded=0;fontFamily=Courier New;fontSize=16;" vertex="1" parent="1">
          <mxGeometry x="265" y="155" width="130" height="30" as="geometry" />
        </mxCell>
        <mxCell id="jUKbqVsv8oZFXf8WdBwF-8" value="location /api/" style="text;html=1;strokeColor=none;fillColor=none;align=center;verticalAlign=middle;whiteSpace=wrap;rounded=0;fontFamily=Courier New;fontSize=16;" vertex="1" parent="1">
          <mxGeometry x="225" y="295" width="170" height="30" as="geometry" />
        </mxCell>
        <mxCell id="jUKbqVsv8oZFXf8WdBwF-10" style="edgeStyle=orthogonalEdgeStyle;rounded=0;orthogonalLoop=1;jettySize=auto;html=1;exitX=0;exitY=0.5;exitDx=0;exitDy=0;entryX=1;entryY=0.75;entryDx=0;entryDy=0;fontFamily=Courier New;fontSize=16;" edge="1" parent="1" source="jUKbqVsv8oZFXf8WdBwF-9" target="jUKbqVsv8oZFXf8WdBwF-2">
          <mxGeometry relative="1" as="geometry" />
        </mxCell>
        <mxCell id="jUKbqVsv8oZFXf8WdBwF-9" value="&lt;font face=&quot;Courier New&quot;&gt;&lt;span style=&quot;font-size: 16px;&quot;&gt;后端&lt;/span&gt;&lt;/font&gt;" style="rounded=0;whiteSpace=wrap;html=1;" vertex="1" parent="1">
          <mxGeometry x="470" y="270" width="290" height="80" as="geometry" />
        </mxCell>
        <mxCell id="jUKbqVsv8oZFXf8WdBwF-13" style="edgeStyle=orthogonalEdgeStyle;rounded=0;orthogonalLoop=1;jettySize=auto;html=1;exitX=0.5;exitY=0;exitDx=0;exitDy=0;entryX=0.25;entryY=1;entryDx=0;entryDy=0;fontFamily=Courier New;fontSize=16;" edge="1" parent="1" source="jUKbqVsv8oZFXf8WdBwF-11" target="jUKbqVsv8oZFXf8WdBwF-9">
          <mxGeometry relative="1" as="geometry" />
        </mxCell>
        <mxCell id="jUKbqVsv8oZFXf8WdBwF-11" value="&lt;font style=&quot;font-size: 16px;&quot;&gt;Redis&lt;/font&gt;" style="rounded=0;whiteSpace=wrap;html=1;fontFamily=Courier New;fontSize=26;" vertex="1" parent="1">
          <mxGeometry x="470" y="380" width="140" height="60" as="geometry" />
        </mxCell>
        <mxCell id="jUKbqVsv8oZFXf8WdBwF-15" style="edgeStyle=orthogonalEdgeStyle;rounded=0;orthogonalLoop=1;jettySize=auto;html=1;exitX=0.5;exitY=0;exitDx=0;exitDy=0;entryX=0.75;entryY=1;entryDx=0;entryDy=0;fontFamily=Courier New;fontSize=16;" edge="1" parent="1" source="jUKbqVsv8oZFXf8WdBwF-14" target="jUKbqVsv8oZFXf8WdBwF-9">
          <mxGeometry relative="1" as="geometry" />
        </mxCell>
        <mxCell id="jUKbqVsv8oZFXf8WdBwF-14" value="GORM" style="rounded=0;whiteSpace=wrap;html=1;fontFamily=Courier New;fontSize=16;" vertex="1" parent="1">
          <mxGeometry x="630" y="380" width="130" height="60" as="geometry" />
        </mxCell>
        <mxCell id="jUKbqVsv8oZFXf8WdBwF-17" style="edgeStyle=orthogonalEdgeStyle;rounded=0;orthogonalLoop=1;jettySize=auto;html=1;exitX=0.75;exitY=0;exitDx=0;exitDy=0;entryX=0.5;entryY=1;entryDx=0;entryDy=0;fontFamily=Courier New;fontSize=16;" edge="1" parent="1" source="jUKbqVsv8oZFXf8WdBwF-16" target="jUKbqVsv8oZFXf8WdBwF-14">
          <mxGeometry relative="1" as="geometry" />
        </mxCell>
        <mxCell id="jUKbqVsv8oZFXf8WdBwF-16" value="PostgreSQL" style="rounded=0;whiteSpace=wrap;html=1;fontFamily=Courier New;fontSize=16;" vertex="1" parent="1">
          <mxGeometry x="470" y="470" width="290" height="60" as="geometry" />
        </mxCell>
        <mxCell id="jUKbqVsv8oZFXf8WdBwF-19" style="edgeStyle=orthogonalEdgeStyle;rounded=0;orthogonalLoop=1;jettySize=auto;html=1;exitX=0;exitY=0.5;exitDx=0;exitDy=0;entryX=1;entryY=0.5;entryDx=0;entryDy=0;fontFamily=Courier New;fontSize=16;" edge="1" parent="1" source="jUKbqVsv8oZFXf8WdBwF-18" target="jUKbqVsv8oZFXf8WdBwF-9">
          <mxGeometry relative="1" as="geometry" />
        </mxCell>
        <mxCell id="jUKbqVsv8oZFXf8WdBwF-18" value="Docker (k8s?)" style="rounded=0;whiteSpace=wrap;html=1;fontFamily=Courier New;fontSize=16;" vertex="1" parent="1">
          <mxGeometry x="810" y="270" width="200" height="80" as="geometry" />
        </mxCell>
      </root>
    </mxGraphModel>
  </diagram>
</mxfile>
